<svg xmlns="http://www.w3.org/2000/svg" version="1.1" viewBox="0.00 0.00 550.00 550.00">
  <path fill="transparent"
    d="
  M 0.00 0.00
  L 550.00 0.00
  L 550.00 550.00
  L 0.00 550.00
  L 0.00 0.00
  Z
  M 188.66 341.62
  L 209.96 341.60
  A 1.30 1.29 -71.9 0 0 211.01 341.06
  Q 224.65 322.52 242.67 298.94
  Q 254.94 282.91 268.40 267.86
  Q 269.61 266.52 269.84 265.41
  A 0.60 0.59 5.5 0 0 269.25 264.70
  L 192.45 264.74
  Q 192.49 230.01 192.45 194.57
  C 192.45 190.54 192.02 187.53 187.45 187.31
  C 174.99 186.69 165.11 183.88 154.70 176.14
  Q 136.99 162.96 132.75 142.91
  C 128.66 123.55 134.62 104.24 148.66 90.25
  C 152.25 86.68 157.45 82.67 161.84 80.39
  Q 178.07 71.96 197.22 74.05
  Q 198.39 74.18 197.90 75.25
  C 193.64 84.66 188.14 105.59 203.12 108.96
  Q 207.13 109.86 210.65 107.94
  C 216.14 104.94 217.17 99.66 218.16 93.99
  Q 221.28 76.14 233.60 63.97
  C 241.45 56.22 253.40 50.40 264.16 48.41
  Q 287.59 44.09 308.08 57.44
  Q 321.74 66.35 328.13 80.97
  Q 330.66 86.78 331.17 92.03
  C 331.90 99.66 332.94 108.50 342.12 109.75
  Q 346.07 110.28 349.59 108.36
  C 360.78 102.25 356.24 84.57 352.40 75.29
  Q 352.09 74.54 352.90 74.44
  C 381.43 70.98 406.38 86.75 416.22 113.49
  C 421.32 127.37 419.96 146.52 411.82 159.24
  C 402.51 173.79 389.47 183.56 372.03 186.16
  Q 368.02 186.75 363.61 187.02
  C 359.39 187.28 358.75 190.59 358.68 194.00
  Q 358.48 204.10 358.36 214.89
  C 358.32 218.49 358.19 221.85 362.25 221.93
  C 369.34 222.05 375.98 222.26 382.65 225.27
  A 1.76 1.76 0.0 0 0 385.04 224.22
  Q 385.29 223.45 385.31 222.62
  Q 385.45 216.63 385.41 211.20
  A 1.00 0.99 -7.9 0 1 386.15 210.23
  C 415.25 202.44 436.42 180.14 444.51 151.55
  Q 448.20 138.50 446.94 125.04
  C 443.83 91.90 423.75 67.41 393.79 54.12
  Q 371.81 44.36 348.46 49.22
  Q 344.78 49.98 340.70 51.13
  Q 340.18 51.27 339.83 50.87
  C 307.07 13.28 251.66 11.16 215.30 45.34
  C 213.83 46.73 212.59 48.44 211.31 50.02
  A 1.01 1.00 -63.0 0 1 210.28 50.36
  Q 181.54 42.66 154.21 54.75
  C 142.49 59.93 130.33 69.49 122.36 79.36
  C 111.30 93.06 104.62 109.55 103.92 127.05
  Q 102.90 152.47 115.84 173.37
  Q 133.17 201.37 164.89 210.35
  A 1.29 1.28 -82.3 0 1 165.83 211.59
  Q 166.01 267.94 165.81 326.26
  C 165.79 331.69 165.52 337.34 169.59 341.48
  C 174.15 346.12 180.92 347.33 186.32 343.31
  Q 187.57 342.38 188.66 341.62
  Z
  M 286.2802 172.0142
  A 10.04 10.04 0.0 0 0 276.2052 162.0093
  L 275.6652 162.0112
  A 10.04 10.04 0.0 0 0 265.6603 172.0862
  L 265.8798 234.9858
  A 10.04 10.04 0.0 0 0 275.9548 244.9907
  L 276.4948 244.9888
  A 10.04 10.04 0.0 0 0 286.4997 234.9138
  L 286.2802 172.0142
  Z
  M 240.0663 187.3934
  A 10.20 10.20 0.0 0 0 229.8308 177.2290
  L 229.1508 177.2314
  A 10.20 10.20 0.0 0 0 218.9864 187.4669
  L 219.1537 235.3866
  A 10.20 10.20 0.0 0 0 229.3892 245.5510
  L 230.0692 245.5486
  A 10.20 10.20 0.0 0 0 240.2336 235.3131
  L 240.0663 187.3934
  Z
  M 331.26 186.61
  A 9.37 9.37 0.0 0 0 321.89 177.24
  L 321.17 177.24
  A 9.37 9.37 0.0 0 0 311.80 186.61
  L 311.80 221.09
  A 9.37 9.37 0.0 0 0 321.17 230.46
  L 321.89 230.46
  A 9.37 9.37 0.0 0 0 331.26 221.09
  L 331.26 186.61
  Z
  M 184.60 411.18
  Q 183.33 410.39 182.06 409.56
  C 179.52 407.91 176.35 408.82 174.24 410.72
  Q 166.43 417.79 157.91 425.91
  Q 129.66 452.84 105.57 476.03
  C 98.73 482.61 96.36 491.47 97.13 500.75
  C 98.76 520.62 117.91 533.49 137.05 527.08
  C 146.48 523.93 153.47 515.44 160.81 508.88
  Q 185.91 486.41 210.08 464.09
  C 212.74 461.64 215.59 459.62 217.98 456.81
  C 220.80 453.50 218.82 450.03 217.21 446.83
  A 0.66 0.65 -18.7 0 1 217.68 445.89
  Q 243.13 441.21 268.96 435.68
  Q 277.09 433.93 288.55 431.60
  Q 318.45 425.52 348.77 418.55
  Q 378.04 411.83 400.32 397.50
  C 421.78 383.70 439.42 361.75 443.21 335.96
  Q 444.68 325.94 444.12 317.81
  C 443.21 304.53 438.02 293.82 430.95 282.78
  Q 430.66 282.33 430.81 281.81
  C 433.44 272.81 432.09 262.69 423.90 257.59
  Q 416.91 253.23 409.46 256.92
  Q 408.92 257.19 408.41 256.86
  C 397.59 249.67 385.37 244.55 373.37 243.00
  C 354.15 240.51 334.81 244.68 317.96 254.50
  Q 303.62 262.86 294.32 271.44
  Q 279.37 285.22 265.97 303.17
  Q 262.42 307.92 258.65 312.86
  Q 236.17 342.31 214.09 372.35
  C 204.50 385.41 194.17 398.33 185.41 411.00
  Q 185.08 411.48 184.60 411.18
  Z"
  />
  <g>
    <path fill="#165056"
      d="
  M 192.45 264.74
  Q 192.05 296.30 192.03 327.14
  C 192.03 330.22 192.33 334.27 191.04 336.76
  Q 189.87 339.02 188.66 341.62
  Q 187.57 342.38 186.32 343.31
  C 180.92 347.33 174.15 346.12 169.59 341.48
  C 165.52 337.34 165.79 331.69 165.81 326.26
  Q 166.01 267.94 165.83 211.59
  A 1.29 1.28 -82.3 0 0 164.89 210.35
  Q 133.17 201.37 115.84 173.37
  Q 102.90 152.47 103.92 127.05
  C 104.62 109.55 111.30 93.06 122.36 79.36
  C 130.33 69.49 142.49 59.93 154.21 54.75
  Q 181.54 42.66 210.28 50.36
  A 1.01 1.00 -63.0 0 0 211.31 50.02
  C 212.59 48.44 213.83 46.73 215.30 45.34
  C 251.66 11.16 307.07 13.28 339.83 50.87
  Q 340.18 51.27 340.70 51.13
  Q 344.78 49.98 348.46 49.22
  Q 371.81 44.36 393.79 54.12
  C 423.75 67.41 443.83 91.90 446.94 125.04
  Q 448.20 138.50 444.51 151.55
  C 436.42 180.14 415.25 202.44 386.15 210.23
  A 1.00 0.99 -7.9 0 0 385.41 211.20
  Q 385.45 216.63 385.31 222.62
  Q 385.29 223.45 385.04 224.22
  A 1.76 1.76 0.0 0 1 382.65 225.27
  C 375.98 222.26 369.34 222.05 362.25 221.93
  C 358.19 221.85 358.32 218.49 358.36 214.89
  Q 358.48 204.10 358.68 194.00
  C 358.75 190.59 359.39 187.28 363.61 187.02
  Q 368.02 186.75 372.03 186.16
  C 389.47 183.56 402.51 173.79 411.82 159.24
  C 419.96 146.52 421.32 127.37 416.22 113.49
  C 406.38 86.75 381.43 70.98 352.90 74.44
  Q 352.09 74.54 352.40 75.29
  C 356.24 84.57 360.78 102.25 349.59 108.36
  Q 346.07 110.28 342.12 109.75
  C 332.94 108.50 331.90 99.66 331.17 92.03
  Q 330.66 86.78 328.13 80.97
  Q 321.74 66.35 308.08 57.44
  Q 287.59 44.09 264.16 48.41
  C 253.40 50.40 241.45 56.22 233.60 63.97
  Q 221.28 76.14 218.16 93.99
  C 217.17 99.66 216.14 104.94 210.65 107.94
  Q 207.13 109.86 203.12 108.96
  C 188.14 105.59 193.64 84.66 197.90 75.25
  Q 198.39 74.18 197.22 74.05
  Q 178.07 71.96 161.84 80.39
  C 157.45 82.67 152.25 86.68 148.66 90.25
  C 134.62 104.24 128.66 123.55 132.75 142.91
  Q 136.99 162.96 154.70 176.14
  C 165.11 183.88 174.99 186.69 187.45 187.31
  C 192.02 187.53 192.45 190.54 192.45 194.57
  Q 192.49 230.01 192.45 264.74
  Z"
    />
    <rect fill="#165056" x="-10.31" y="-41.49" transform="translate(276.08,203.50) rotate(-0.2)"
      width="20.62" height="82.98" rx="10.04" />
    <rect fill="#165056" x="-10.54" y="-34.16" transform="translate(229.61,211.39) rotate(-0.2)"
      width="21.08" height="68.32" rx="10.20" />
    <rect fill="#165056" x="311.80" y="177.24" width="19.46" height="53.22" rx="9.37" />
    <path fill="#165056"
      d="
  M 185.41 411.00
  C 194.17 398.33 204.50 385.41 214.09 372.35
  Q 236.17 342.31 258.65 312.86
  Q 262.42 307.92 265.97 303.17
  Q 279.37 285.22 294.32 271.44
  Q 303.62 262.86 317.96 254.50
  C 334.81 244.68 354.15 240.51 373.37 243.00
  C 385.37 244.55 397.59 249.67 408.41 256.86
  Q 408.92 257.19 409.46 256.92
  Q 416.91 253.23 423.90 257.59
  C 432.09 262.69 433.44 272.81 430.81 281.81
  Q 430.66 282.33 430.95 282.78
  C 438.02 293.82 443.21 304.53 444.12 317.81
  Q 444.68 325.94 443.21 335.96
  C 439.42 361.75 421.78 383.70 400.32 397.50
  Q 378.04 411.83 348.77 418.55
  Q 318.45 425.52 288.55 431.60
  Q 277.09 433.93 268.96 435.68
  Q 243.13 441.21 217.68 445.89
  A 0.66 0.65 -18.7 0 0 217.21 446.83
  C 218.82 450.03 220.80 453.50 217.98 456.81
  C 215.59 459.62 212.74 461.64 210.08 464.09
  Q 185.91 486.41 160.81 508.88
  C 153.47 515.44 146.48 523.93 137.05 527.08
  C 117.91 533.49 98.76 520.62 97.13 500.75
  C 96.36 491.47 98.73 482.61 105.57 476.03
  Q 129.66 452.84 157.91 425.91
  Q 166.43 417.79 174.24 410.72
  C 176.35 408.82 179.52 407.91 182.06 409.56
  Q 183.33 410.39 184.60 411.18
  Q 185.08 411.48 185.41 411.00
  Z
  M 336.17 271.38
  Q 329.86 274.02 325.41 276.93
  Q 310.84 286.48 299.53 298.72
  Q 289.92 309.14 276.52 327.02
  C 268.31 337.98 260.13 348.63 252.01 359.75
  Q 238.34 378.44 224.31 396.40
  Q 224.20 396.54 224.33 396.66
  L 224.34 396.66
  Q 224.51 396.81 224.66 396.65
  C 249.09 371.79 273.60 349.07 302.45 323.47
  Q 316.48 311.02 331.60 299.10
  C 347.28 286.75 364.92 274.98 384.88 270.03
  Q 386.72 269.58 384.94 268.92
  C 368.66 262.92 352.32 264.65 336.17 271.38
  Z
  M 346.01 349.52
  Q 358.98 342.88 371.45 334.09
  C 385.16 324.42 396.74 311.29 403.65 296.77
  Q 405.79 292.29 406.76 288.15
  A 0.33 0.33 0.0 0 0 406.42 287.75
  Q 393.05 288.36 381.16 293.91
  C 368.45 299.83 356.31 307.39 345.24 316.29
  C 335.09 324.43 325.41 332.95 315.61 341.48
  Q 308.29 347.86 300.71 354.92
  Q 286.23 368.42 270.66 381.86
  Q 269.30 383.03 270.98 382.40
  Q 282.85 377.93 295.47 372.87
  C 313.11 365.79 329.73 357.87 346.01 349.52
  Z
  M 420.59 311.63
  Q 420.38 309.62 419.76 311.55
  Q 418.68 314.91 416.87 317.84
  Q 404.71 337.44 385.97 351.07
  Q 368.49 363.78 344.01 375.87
  Q 315.65 389.89 288.47 399.68
  Q 267.71 407.16 247.24 414.16
  Q 241.00 416.29 232.98 418.32
  Q 232.74 418.38 232.80 418.62
  L 232.87 418.93
  Q 232.90 419.02 232.99 419.00
  Q 273.21 411.19 317.80 401.69
  Q 340.42 396.87 354.96 392.63
  C 368.62 388.65 384.27 381.46 395.41 371.71
  Q 403.18 364.90 409.43 356.67
  C 419.76 343.07 422.40 328.17 420.59 311.63
  Z
  M 120.69 501.08
  Q 122.48 505.90 126.97 505.72
  C 128.80 505.65 130.28 504.28 131.50 503.05
  Q 138.36 496.16 145.03 489.02
  A 1.13 1.12 -48.0 0 0 144.95 487.41
  L 137.23 480.62
  A 0.76 0.76 0.0 0 0 136.23 480.62
  Q 130.24 485.95 123.53 491.04
  Q 118.40 494.93 120.69 501.08
  Z"
    />
    <path fill="#f96b04"
      d="
  M 188.66 341.62
  Q 189.87 339.02 191.04 336.76
  C 192.33 334.27 192.03 330.22 192.03 327.14
  Q 192.05 296.30 192.45 264.74
  L 269.25 264.70
  A 0.60 0.59 5.5 0 1 269.84 265.41
  Q 269.61 266.52 268.40 267.86
  Q 254.94 282.91 242.67 298.94
  Q 224.65 322.52 211.01 341.06
  A 1.30 1.29 -71.9 0 1 209.96 341.60
  L 188.66 341.62
  Z"
    />
  </g>
  <g>
    <path fill="transparent"
      d="
  M 336.17 271.38
  C 352.32 264.65 368.66 262.92 384.94 268.92
  Q 386.72 269.58 384.88 270.03
  C 364.92 274.98 347.28 286.75 331.60 299.10
  Q 316.48 311.02 302.45 323.47
  C 273.60 349.07 249.09 371.79 224.66 396.65
  Q 224.51 396.81 224.34 396.66
  L 224.33 396.66
  Q 224.20 396.54 224.31 396.40
  Q 238.34 378.44 252.01 359.75
  C 260.13 348.63 268.31 337.98 276.52 327.02
  Q 289.92 309.14 299.53 298.72
  Q 310.84 286.48 325.41 276.93
  Q 329.86 274.02 336.17 271.38
  Z"
    />
    <path fill="transparent"
      d="
  M 346.01 349.52
  C 329.73 357.87 313.11 365.79 295.47 372.87
  Q 282.85 377.93 270.98 382.40
  Q 269.30 383.03 270.66 381.86
  Q 286.23 368.42 300.71 354.92
  Q 308.29 347.86 315.61 341.48
  C 325.41 332.95 335.09 324.43 345.24 316.29
  C 356.31 307.39 368.45 299.83 381.16 293.91
  Q 393.05 288.36 406.42 287.75
  A 0.33 0.33 0.0 0 1 406.76 288.15
  Q 405.79 292.29 403.65 296.77
  C 396.74 311.29 385.16 324.42 371.45 334.09
  Q 358.98 342.88 346.01 349.52
  Z"
    />
    <path fill="transparent"
      d="
  M 420.59 311.63
  C 422.40 328.17 419.76 343.07 409.43 356.67
  Q 403.18 364.90 395.41 371.71
  C 384.27 381.46 368.62 388.65 354.96 392.63
  Q 340.42 396.87 317.80 401.69
  Q 273.21 411.19 232.99 419.00
  Q 232.90 419.02 232.87 418.93
  L 232.80 418.62
  Q 232.74 418.38 232.98 418.32
  Q 241.00 416.29 247.24 414.16
  Q 267.71 407.16 288.47 399.68
  Q 315.65 389.89 344.01 375.87
  Q 368.49 363.78 385.97 351.07
  Q 404.71 337.44 416.87 317.84
  Q 418.68 314.91 419.76 311.55
  Q 420.38 309.62 420.59 311.63
  Z"
    />
    <path fill="transparent"
      d="
  M 120.69 501.08
  Q 118.40 494.93 123.53 491.04
  Q 130.24 485.95 136.23 480.62
  A 0.76 0.76 0.0 0 1 137.23 480.62
  L 144.95 487.41
  A 1.13 1.12 -48.0 0 1 145.03 489.02
  Q 138.36 496.16 131.50 503.05
  C 130.28 504.28 128.80 505.65 126.97 505.72
  Q 122.48 505.90 120.69 501.08
  Z"
    />
  </g>
</svg>
